#!OML:ASF F:\VICON\USERDATA\INSTALL\rory3\rory3.ASF
:FULLY-SPECIFIED
:DEGREES
73
root -0.2636154707850891 17.34738512160054 44.51788735567277 3.526242160719156 1.7533385577452358 -0.40994917415162746
lfemur 6.819244269653604 -2.95507042233163 -26.87071049167747
ltibia 36.82193172302584
lfoot -9.782162319328357 -2.4972515967072324
ltoes -24.515053158945648
rfemur -50.515920805344315 -5.827565827208973 22.53533058675734
rtibia 93.26315054282956
rfoot 1.2674923550761843 -5.656087548010969
rtoes 2.405677243959278
lowerback 15.245215887999837 -0.7430945769551289 -2.724939537540557
upperback -1.0874797028488563 -1.4036698810107366 1.0910553666927725
thorax -9.827950042311508 -0.4634151588609322 3.5022742465111274
lowerneck -21.665257217419192 -2.4479565264573506 -2.274761199404518
upperneck 14.479850578421056 -3.298750062074316 3.137304662250468
head 7.967792991799974 -1.3106198474762945 1.0115219126126345
lclavicle -2.6466684587932254e-15 1.117892262039907e-15
lhumerus -31.13489083483395 -17.178049839791882 96.43177996089905
lradius 114.84125036544279
lwrist 36.831441457028916
lhand -25.62898342275629 0.3638185255834385
lfingers 7.12502
lthumb 0.9040643284697767 30.36791637799032
rclavicle -2.6466684587932254e-15 1.117892262039907e-15
rhumerus -60.65780989272893 5.574315361683398 -100.46831237585327
rradius 105.53183448580216
rwrist -13.680920967085196
rhand -14.522759123970431 38.6579856400382
rfingers 7.12502
rthumb 11.626250651133084 9.323231435219652
74
root -0.24347811065453995 17.574760407090746 45.39556753770354 3.822503898931787 0.7259172979720941 -0.8442010650205967
lfemur 10.85567658047926 -2.7031291947110256 -26.4085621362482
ltibia 33.24142347137891
lfoot -2.320841638001877 -5.475143935058163
ltoes -26.7000591932975
rfemur -51.61118758774853 -4.181133038198096 23.452528925524344
rtibia 84.05223380864183
rfoot 0.7676295078155091 -4.822880116536986
rtoes -0.2076377773542637
lowerback 14.691982133685984 -1.0917139310942576 -2.4929004358406894
upperback -1.409653184736223 -1.786302464040452 1.5756628773849723
thorax -9.741199502984024 -0.6389360163035457 3.9217802104349158
lowerneck -21.494104345843972 -2.057641063744768 -2.4397086530402006
upperneck 14.849049391782366 -2.6890141603212774 2.881922233163053
head 8.027210518471222 -1.0548301083571623 1.0127919925815148
lclavicle -2.8005459592578204e-15 1.0062798628791992e-15
lhumerus -30.737698036822017 -16.928852200837476 95.55009359234047
lradius 116.7613722170003
lwrist 37.56280306399438
lhand -25.464999773264665 0.2391622121954895
lfingers 7.12502
lthumb 1.0624319730409142 30.236017354152125
rclavicle -2.8005459592578204e-15 1.0062798628791992e-15
rhumerus -62.941805391839864 5.3272805002410255 -99.69846943636301
rradius 106.41811134720614
rwrist -13.9706700042205
rhand -14.35746274401479 38.70293712343322
rfingers 7.12502
rthumb 11.785829567686687 9.338176787636064
75
root -0.21517596018699592 17.805318101153272 46.39641509243905 4.11648909402646 -0.312661081006287 -1.2004925587381416
lfemur 14.575052999916936 -2.5905200300338214 -25.970168008495506
ltibia 30.417512388005544
lfoot 5.706854928027789 -8.173196120491824
ltoes -26.29144480265054
rfemur -51.21427420089769 -2.25892648950555 24.31631927296746
rtibia 74.2758166883744
rfoot 0.9716477036727911 -3.725874714851684
rtoes -2.615641354133589
lowerback 14.180559775889147 -1.300873237620337 -2.1571689103210048
upperback -1.7331705543792926 -1.9706148959607153 2.012328686055273
thorax -9.656369049998352 -0.7292671631643121 4.233088078300215
lowerneck -21.20985667983031 -1.7381708829976845 -2.6289254619671807
upperneck 15.22785411933802 -2.175487231654125 2.7011394906755535
head 8.09139409173711 -0.8435267688390162 1.0330740744976488
lclavicle -2.5241035913735207e-15 1.2067926017294146e-15
lhumerus -30.78799248785424 -16.874373698900317 94.73669210862829
lradius 118.1333140853339
lwrist 37.5864467302962
lhand -25.157933051486886 0.2192374121563896
lfingers 7.12502
lthumb 1.3589911281598424 30.209092508096298
rclavicle -2.5241035913735207e-15 1.2067926017294146e-15
rhumerus -64.8627722272821 4.746652469772897 -98.6029786178752
rradius 107.17696532701109
rwrist -13.949900230052998
rhand -14.300592410217883 38.766312637238684
rfingers 7.12502
rthumb 11.840772265697467 9.386928775925858
76
root -0.18539639878288258 18.009203078114847 47.1047557548251 4.379340347781425 -1.2273721802981785 -1.453928102407664
lfemur 17.11583401013118 -2.9015191553725446 -25.828268147486426
ltibia 28.289811429128644
lfoot 12.75967959238334 -10.358056369936696
ltoes -23.90066038971248
rfemur -50.143871837289886 -0.5943706063473833 24.929944419631646
rtibia 63.781236846928
rfoot 1.4362895204210715 -2.8536749546570963
rtoes -5.1487308288935605
lowerback 13.70755304810016 -1.4525819767137302 -1.8782153239220005
upperback -2.0480980353901446 -2.0945842071478995 2.3163091508721285
thorax -9.59293655915267 -0.7922454699777913 4.378221919564102
lowerneck -20.883123835818026 -1.5345958688328478 -2.818493203526432
upperneck 15.520139985273259 -1.8332455311741884 2.566680810397126
head 8.135806782368475 -0.7085139269344787 1.0527864679868821
lclavicle -2.515574302317052e-15 1.2129791825181475e-15
lhumerus -31.36996653466038 -17.185202774869946 94.0136448230646
lradius 118.81556820833853
lwrist 36.964207142359314
lhand -24.82798897115556 0.1300882156022951
lfingers 7.12502
lthumb 1.6776585329203069 30.11599779598043
rclavicle -2.515574302317052e-15 1.2129791825181475e-15
rhumerus -66.55317056323202 3.7850732119667345 -97.35459933866854
rradius 107.80575454997935
rwrist -13.764339495882716
rhand -14.340995671978888 38.826097541087236
rfingers 7.12502
rthumb 11.801851641579708 9.453031257478996
77
root -0.1546782681361078 18.1677327798521 47.566389265694866 4.591317318723122 -1.8668082096366527 -1.495409073272105
lfemur 18.570677437637777 -3.673954926356344 -26.034331926476632
ltibia 27.388580697111774
lfoot 17.91306894386442 -11.838889326444214
ltoes -20.29806018429922
rfemur -48.57405400592347 0.48777801973948115 25.287174728026486
rtibia 53.323721599199814
rfoot 2.049327234864624 -2.522097936851929
rtoes -7.614321248929535
lowerback 13.316024639982675 -1.5852058048331599 -1.73040830197446
upperback -2.3065163508858912 -2.2272853477919172 2.460644858233253
thorax -9.535969221065926 -0.857148023455833 4.434425804881465
lowerneck -20.586974805828252 -1.446739300292473 -2.974623248775013
upperneck 15.669510715067084 -1.6697659715408961 2.4762157339104016
head 8.149893600355616 -0.6496902117646774 1.064816703056891
lclavicle -2.6250924213828414e-15 1.1335420982355918e-15
lhumerus -32.106630594167484 -17.753493892654287 93.41501509053941
lradius 118.79814644594221
lwrist 36.03591819400264
lhand -24.56218277885493 -0.017844196153850023
lfingers 7.12502
lthumb 1.934400946525407 29.96873431496698
rclavicle -2.6250924213828414e-15 1.1335420982355918e-15
rhumerus -67.87968177815364 2.5907496319169363 -96.08433888216334
rradius 108.45653153387559
rwrist -13.485540178768465
rhand -14.427197134363944 38.89527819400444
rfingers 7.12502
rthumb 11.718754191120023 9.538979354211085
